<svg width="36" height="36" viewBox="0 0 36 36" fill="none" xmlns="http://www.w3.org/2000/svg">
<rect width="36" height="36" rx="18" fill="white"/>
<path d="M18.353 2.77344L22.5962 7H28.9995V13.4023L33.228 17.6475L33.5796 18L33.228 18.3535L28.9995 22.5977V29H22.5972L18.353 33.2285L17.9995 33.5801L17.647 33.2285L13.4028 29H6.99951V22.5967L2.77295 18.3535L2.42139 18L2.77295 17.6475L6.99951 13.4033V7H13.4038L17.647 2.77344L17.9995 2.42188L18.353 2.77344ZM9.49951 26.5H14.4575L14.603 26.6465L17.9995 30.043L21.5425 26.5H26.4995V21.543L30.0425 18L26.646 14.6035L26.4995 14.458V9.5H21.5425L17.9995 5.95703L14.603 9.35352L14.4575 9.5H9.49951V14.458L9.35303 14.6035L5.95654 18L9.49951 21.543V26.5Z" fill="#396D96" stroke="#396D96"/>
<path d="M22.4524 12L24 13.059L17.2897 22.5H15.7421L12 17.3852L13.5476 15.9769L16.5159 18.6808L22.4524 12Z" fill="#396D96"/>
</svg>
