<svg width="36" height="36" viewBox="0 0 36 36" fill="none" xmlns="http://www.w3.org/2000/svg">
<rect width="36" height="36" rx="18" fill="white"/>
<path d="M17.8124 30C17.9124 30 18.0124 29.975 18.1124 29.925C18.2124 29.875 18.2874 29.825 18.3374 29.775L30.6374 17.475C30.9374 17.175 31.1564 16.8375 31.2944 16.4625C31.4324 16.0875 31.5009 15.7125 31.4999 15.3375C31.4999 14.9375 31.4314 14.556 31.2944 14.193C31.1574 13.83 30.9384 13.5115 30.6374 13.2375L24.2624 6.8625C23.9874 6.5625 23.6684 6.344 23.3054 6.207C22.9424 6.07 22.5619 6.001 22.1639 6C21.7889 6 21.4139 6.069 21.0389 6.207C20.6639 6.345 20.3264 6.5635 20.0264 6.8625L19.6139 7.275L22.3889 10.0875C22.7639 10.4375 23.0389 10.8375 23.2139 11.2875C23.3889 11.7375 23.4764 12.2125 23.4764 12.7125C23.4764 13.7625 23.1204 14.644 22.4084 15.357C21.6964 16.07 20.8149 16.426 19.7639 16.425C19.2639 16.425 18.7829 16.3375 18.3209 16.1625C17.8589 15.9875 17.4524 15.725 17.1014 15.375L14.2874 12.6L7.72486 19.1625C7.64986 19.2375 7.59386 19.319 7.55686 19.407C7.51986 19.495 7.50086 19.5885 7.49986 19.6875C7.49986 19.8875 7.57486 20.069 7.72486 20.232C7.87486 20.395 8.04986 20.476 8.24986 20.475C8.34986 20.475 8.44986 20.45 8.54986 20.4C8.64986 20.35 8.72486 20.3 8.77486 20.25L13.8749 15.15L15.9749 17.25L10.9124 22.35C10.8374 22.425 10.7814 22.5065 10.7444 22.5945C10.7074 22.6825 10.6884 22.776 10.6874 22.875C10.6874 23.075 10.7624 23.25 10.9124 23.4C11.0624 23.55 11.2374 23.625 11.4374 23.625C11.5374 23.625 11.6374 23.6 11.7374 23.55C11.8374 23.5 11.9124 23.45 11.9624 23.4L17.0624 18.3375L19.1624 20.4375L14.0999 25.5375C14.0249 25.5875 13.9689 25.6625 13.9319 25.7625C13.8949 25.8625 13.8759 25.9625 13.8749 26.0625C13.8749 26.2625 13.9499 26.4375 14.0999 26.5875C14.2499 26.7375 14.4249 26.8125 14.6249 26.8125C14.7249 26.8125 14.8189 26.7935 14.9069 26.7555C14.9949 26.7175 15.0759 26.6615 15.1499 26.5875L20.2499 21.525L22.3499 23.625L17.2499 28.725C17.1749 28.8 17.1189 28.881 17.0819 28.968C17.0449 29.055 17.0259 29.149 17.0249 29.25C17.0249 29.45 17.1064 29.625 17.2694 29.775C17.4324 29.925 17.6134 30 17.8124 30ZM17.7749 33C16.8499 33 16.0314 32.694 15.3194 32.082C14.6074 31.47 14.1884 30.701 14.0624 29.775C13.2124 29.65 12.4999 29.3 11.9249 28.725C11.3499 28.15 10.9999 27.4375 10.8749 26.5875C10.0249 26.4625 9.31886 26.1065 8.75686 25.5195C8.19486 24.9325 7.85086 24.226 7.72486 23.4C6.77486 23.275 5.99986 22.8625 5.39986 22.1625C4.79986 21.4625 4.49986 20.6375 4.49986 19.6875C4.49986 19.1875 4.59386 18.7065 4.78186 18.2445C4.96986 17.7825 5.23836 17.376 5.58736 17.025L14.2874 8.3625L19.1999 13.275C19.2499 13.35 19.3249 13.4065 19.4249 13.4445C19.5249 13.4825 19.6249 13.501 19.7249 13.5C19.9499 13.5 20.1374 13.4315 20.2874 13.2945C20.4374 13.1575 20.5124 12.976 20.5124 12.75C20.5124 12.65 20.4934 12.55 20.4554 12.45C20.4174 12.35 20.3614 12.275 20.2874 12.225L14.9249 6.8625C14.6499 6.5625 14.3314 6.344 13.9694 6.207C13.6074 6.07 13.2259 6.001 12.8249 6C12.4499 6 12.0749 6.069 11.6999 6.207C11.3249 6.345 10.9874 6.5635 10.6874 6.8625L5.39986 12.1875C5.17486 12.4125 4.98736 12.675 4.83736 12.975C4.68736 13.275 4.58736 13.575 4.53736 13.875C4.48736 14.175 4.48736 14.4815 4.53736 14.7945C4.58736 15.1075 4.68736 15.401 4.83736 15.675L2.66236 17.85C2.23736 17.275 1.92486 16.644 1.72486 15.957C1.52486 15.27 1.44986 14.576 1.49986 13.875C1.54986 13.174 1.72486 12.493 2.02486 11.832C2.32486 11.171 2.73736 10.577 3.26236 10.05L8.54986 4.7625C9.14986 4.1875 9.81886 3.75 10.5569 3.45C11.2949 3.15 12.0509 3 12.8249 3C13.5989 3 14.3554 3.15 15.0944 3.45C15.8334 3.75 16.4894 4.1875 17.0624 4.7625L17.4749 5.175L17.8874 4.7625C18.4874 4.1875 19.1564 3.75 19.8944 3.45C20.6324 3.15 21.3884 3 22.1624 3C22.9364 3 23.6929 3.15 24.4319 3.45C25.1709 3.75 25.8269 4.1875 26.3999 4.7625L32.7374 11.1C33.3124 11.675 33.7499 12.3375 34.0499 13.0875C34.3499 13.8375 34.4999 14.6 34.4999 15.375C34.4999 16.15 34.3499 16.9065 34.0499 17.6445C33.7499 18.3825 33.3124 19.0385 32.7374 19.6125L20.4374 31.875C20.0874 32.225 19.6814 32.5 19.2194 32.7C18.7574 32.9 18.2759 33 17.7749 33Z" fill="#396D96"/>
</svg>
