<svg width="36" height="36" viewBox="0 0 36 36" fill="none" xmlns="http://www.w3.org/2000/svg">
<rect width="36" height="36" rx="18" transform="matrix(-1 0 0 1 36 0)" fill="white"/>
<path d="M16.4999 4.5C10.6799 4.5 5.99988 9.21 5.99988 15C5.99988 19.2 8.44488 22.785 11.9999 24.465V31.5H22.4999V27H23.9999C25.6649 27 26.9999 25.665 26.9999 24V19.5H29.2499C29.8799 19.5 30.2399 18.75 29.8799 18.285L26.9999 14.49C26.8677 11.7949 25.7035 9.25409 23.7487 7.39417C21.7938 5.53425 19.1982 4.49792 16.4999 4.5ZM16.4999 1.5C23.3849 1.5 29.0849 6.63 29.9099 13.35L32.2499 16.5H32.2949L32.3249 16.545C33.1499 17.685 33.2549 19.185 32.6099 20.43C32.0699 21.465 31.1099 22.185 29.9999 22.41V24C29.9999 26.775 28.0799 29.13 25.4999 29.805V34.5H8.99988V26.25C5.24988 23.745 2.99988 19.59 2.99988 15C2.99988 7.545 9.05988 1.5 16.4999 1.5Z" fill="#396D96"/>
<path d="M13.7687 18L13.5896 16.56C13.4925 16.5225 13.4012 16.4775 13.3155 16.425C13.2299 16.3725 13.1458 16.3162 13.0634 16.2562L11.7313 16.8187L10.5 14.6812L11.653 13.8038C11.6455 13.7512 11.6418 13.7007 11.6418 13.6521V13.3484C11.6418 13.2994 11.6455 13.2487 11.653 13.1962L10.5 12.3187L11.7313 10.1812L13.0634 10.7437C13.1455 10.6837 13.2313 10.6275 13.3209 10.575C13.4104 10.5225 13.5 10.4775 13.5896 10.44L13.7687 9H16.2313L16.4104 10.44C16.5075 10.4775 16.599 10.5225 16.6849 10.575C16.7709 10.6275 16.8548 10.6837 16.9366 10.7437L18.2687 10.1812L19.5 12.3187L18.347 13.1962C18.3545 13.2487 18.3582 13.2994 18.3582 13.3484V13.6516C18.3582 13.7005 18.3507 13.7512 18.3358 13.8038L19.4888 14.6812L18.2575 16.8187L16.9366 16.2562C16.8545 16.3162 16.7687 16.3725 16.6791 16.425C16.5896 16.4775 16.5 16.5225 16.4104 16.56L16.2313 18H13.7687ZM14.5522 17.1H15.4366L15.5933 15.9075C15.8246 15.8475 16.0393 15.7594 16.2372 15.6434C16.4351 15.5273 16.616 15.3865 16.7799 15.2212L17.8881 15.6825L18.3246 14.9175L17.3619 14.1862C17.3993 14.0812 17.4254 13.9707 17.4403 13.8546C17.4552 13.7385 17.4627 13.6203 17.4627 13.5C17.4627 13.3797 17.4552 13.2617 17.4403 13.1459C17.4254 13.03 17.3993 12.9194 17.3619 12.8138L18.3246 12.0825L17.8881 11.3175L16.7799 11.79C16.6157 11.6175 16.4348 11.4732 16.2372 11.3571C16.0396 11.241 15.8249 11.1528 15.5933 11.0925L15.4478 9.9H14.5634L14.4067 11.0925C14.1754 11.1525 13.9609 11.2407 13.7633 11.3571C13.5657 11.4735 13.3846 11.614 13.2201 11.7787L12.1119 11.3175L11.6754 12.0825L12.6381 12.8025C12.6007 12.915 12.5746 13.0275 12.5597 13.14C12.5448 13.2525 12.5373 13.3725 12.5373 13.5C12.5373 13.62 12.5448 13.7362 12.5597 13.8487C12.5746 13.9612 12.6007 14.0737 12.6381 14.1862L11.6754 14.9175L12.1119 15.6825L13.2201 15.21C13.3843 15.3825 13.5654 15.5269 13.7633 15.6434C13.9612 15.7597 14.1757 15.8478 14.4067 15.9075L14.5522 17.1Z" fill="#396D96"/>
</svg>
