<svg width="24" height="24" viewBox="0 0 24 24" fill="none" xmlns="http://www.w3.org/2000/svg">
<path d="M20.25 9.75V18.75C20.25 19.5456 19.9339 20.3087 19.3713 20.8713C18.8087 21.4339 18.0456 21.75 17.25 21.75H6.75C5.95435 21.75 5.19129 21.4339 4.62868 20.8713C4.06607 20.3087 3.75 19.5456 3.75 18.75V5.25C3.75 3.6 5.1 2.25 6.75 2.25H12.765" stroke="#2B5271" stroke-width="2" stroke-linecap="round" stroke-linejoin="round"/>
<path d="M8.25 17.25H15.75M8.25 12.75H15.75M8.25 8.25H9.75M12.75 2.25L20.25 9.75H14.25C13.8522 9.75 13.4706 9.59196 13.1893 9.31066C12.908 9.02936 12.75 8.64782 12.75 8.25V2.25Z" stroke="#2B5271" stroke-width="2" stroke-linecap="round" stroke-linejoin="round"/>
</svg>
