<svg width="24" height="24" viewBox="0 0 24 24" fill="none" xmlns="http://www.w3.org/2000/svg">
<path d="M22 8.49947V13.4995M14.217 3.49947C13.5242 3.17061 12.7669 3 12 3C11.2331 3 10.4758 3.17061 9.783 3.49947L3.092 6.63647C1.636 7.31847 1.636 9.68047 3.092 10.3625L9.782 13.4995C10.4749 13.8285 11.2324 13.9992 11.9995 13.9992C12.7666 13.9992 13.5241 13.8285 14.217 13.4995L20.908 10.3625C22.364 9.68047 22.364 7.31847 20.908 6.63647L14.217 3.49947Z" stroke="#2B5271" stroke-width="2" stroke-linecap="round" stroke-linejoin="round"/>
<path d="M5 11.5V16.625C5 19.543 9.694 21 12 21C14.306 21 19 19.543 19 16.625V11.5" stroke="#2B5271" stroke-width="2" stroke-linecap="round" stroke-linejoin="round"/>
</svg>
